<mxfile host="app.diagrams.net" agent="Mozilla/5.0 (Macintosh; Intel Mac OS X 10_15_7) AppleWebKit/537.36 (KHTML, like Gecko) Chrome/126.0.0.0 Safari/537.36" version="24.7.12">
  <diagram name="Page-1" id="1npiZSmswvkon4gAFHvo">
    <mxGraphModel dx="1912" dy="1228" grid="1" gridSize="10" guides="1" tooltips="1" connect="1" arrows="1" fold="1" page="1" pageScale="1" pageWidth="850" pageHeight="1100" math="0" shadow="0">
      <root>
        <mxCell id="0" />
        <mxCell id="1" parent="0" />
        <mxCell id="VEC-emDZ8dzPH6i4BCSv-1" value="" style="rounded=0;whiteSpace=wrap;html=1;" vertex="1" parent="1">
          <mxGeometry x="370" y="390" width="990" height="650" as="geometry" />
        </mxCell>
        <mxCell id="VEC-emDZ8dzPH6i4BCSv-2" value="AWS" style="text;html=1;align=center;verticalAlign=middle;whiteSpace=wrap;rounded=0;fillColor=#ffe6cc;strokeColor=#d79b00;strokeWidth=2;fontSize=19;" vertex="1" parent="1">
          <mxGeometry x="370" y="360" width="60" height="30" as="geometry" />
        </mxCell>
        <mxCell id="VEC-emDZ8dzPH6i4BCSv-4" value="" style="image;aspect=fixed;perimeter=ellipsePerimeter;html=1;align=center;shadow=0;dashed=0;spacingTop=3;image=img/lib/active_directory/internet_cloud.svg;" vertex="1" parent="1">
          <mxGeometry x="800" y="175" width="95.23" height="60" as="geometry" />
        </mxCell>
        <mxCell id="VEC-emDZ8dzPH6i4BCSv-21" style="edgeStyle=orthogonalEdgeStyle;rounded=0;orthogonalLoop=1;jettySize=auto;html=1;" edge="1" parent="1" source="VEC-emDZ8dzPH6i4BCSv-5" target="VEC-emDZ8dzPH6i4BCSv-22">
          <mxGeometry relative="1" as="geometry">
            <mxPoint x="880" y="379.9999999999998" as="targetPoint" />
          </mxGeometry>
        </mxCell>
        <mxCell id="VEC-emDZ8dzPH6i4BCSv-5" value="&lt;font color=&quot;#ffffff&quot;&gt;Public&lt;/font&gt;" style="text;html=1;align=center;verticalAlign=middle;whiteSpace=wrap;rounded=0;" vertex="1" parent="1">
          <mxGeometry x="817.62" y="190" width="60" height="30" as="geometry" />
        </mxCell>
        <mxCell id="VEC-emDZ8dzPH6i4BCSv-11" style="edgeStyle=orthogonalEdgeStyle;rounded=0;orthogonalLoop=1;jettySize=auto;html=1;" edge="1" parent="1" source="VEC-emDZ8dzPH6i4BCSv-6">
          <mxGeometry relative="1" as="geometry">
            <mxPoint x="850" y="179.99999999999977" as="targetPoint" />
          </mxGeometry>
        </mxCell>
        <mxCell id="VEC-emDZ8dzPH6i4BCSv-6" value="Business client" style="shape=umlActor;verticalLabelPosition=bottom;verticalAlign=top;html=1;outlineConnect=0;" vertex="1" parent="1">
          <mxGeometry x="650" y="30" width="30" height="60" as="geometry" />
        </mxCell>
        <mxCell id="VEC-emDZ8dzPH6i4BCSv-10" style="edgeStyle=orthogonalEdgeStyle;rounded=0;orthogonalLoop=1;jettySize=auto;html=1;entryX=0.5;entryY=0;entryDx=0;entryDy=0;" edge="1" parent="1" source="VEC-emDZ8dzPH6i4BCSv-9" target="VEC-emDZ8dzPH6i4BCSv-4">
          <mxGeometry relative="1" as="geometry" />
        </mxCell>
        <mxCell id="VEC-emDZ8dzPH6i4BCSv-9" value="Clients" style="shape=umlActor;verticalLabelPosition=bottom;verticalAlign=top;html=1;outlineConnect=0;" vertex="1" parent="1">
          <mxGeometry x="1040" y="30" width="30" height="60" as="geometry" />
        </mxCell>
        <mxCell id="VEC-emDZ8dzPH6i4BCSv-15" value="" style="rounded=0;whiteSpace=wrap;html=1;strokeColor=default;dashed=1;" vertex="1" parent="1">
          <mxGeometry x="410" y="430" width="900" height="580" as="geometry" />
        </mxCell>
        <mxCell id="VEC-emDZ8dzPH6i4BCSv-16" value="" style="outlineConnect=0;dashed=0;verticalLabelPosition=bottom;verticalAlign=top;align=center;html=1;shape=mxgraph.aws3.virtual_private_cloud;fillColor=#F58534;gradientColor=none;" vertex="1" parent="1">
          <mxGeometry x="385" y="410" width="79.5" height="54" as="geometry" />
        </mxCell>
        <mxCell id="VEC-emDZ8dzPH6i4BCSv-17" value="" style="rounded=0;whiteSpace=wrap;html=1;dashed=1;fillColor=none;" vertex="1" parent="1">
          <mxGeometry x="480" y="340" width="340" height="720" as="geometry" />
        </mxCell>
        <mxCell id="VEC-emDZ8dzPH6i4BCSv-18" value="" style="rounded=0;whiteSpace=wrap;html=1;dashed=1;fillColor=none;" vertex="1" parent="1">
          <mxGeometry x="940" y="340" width="330" height="720" as="geometry" />
        </mxCell>
        <mxCell id="VEC-emDZ8dzPH6i4BCSv-19" value="Availability zone" style="text;html=1;align=center;verticalAlign=middle;whiteSpace=wrap;rounded=0;fontSize=15;" vertex="1" parent="1">
          <mxGeometry x="580" y="310" width="110" height="30" as="geometry" />
        </mxCell>
        <mxCell id="VEC-emDZ8dzPH6i4BCSv-20" value="&lt;span style=&quot;color: rgb(0, 0, 0); font-family: Helvetica; font-style: normal; font-variant-ligatures: normal; font-variant-caps: normal; font-weight: 400; letter-spacing: normal; orphans: 2; text-align: center; text-indent: 0px; text-transform: none; widows: 2; word-spacing: 0px; -webkit-text-stroke-width: 0px; white-space: normal; background-color: rgb(251, 251, 251); text-decoration-thickness: initial; text-decoration-style: initial; text-decoration-color: initial; float: none; display: inline !important;&quot;&gt;&lt;font style=&quot;font-size: 15px;&quot;&gt;Availability zone&lt;/font&gt;&lt;/span&gt;" style="text;whiteSpace=wrap;html=1;" vertex="1" parent="1">
          <mxGeometry x="1055" y="305" width="120" height="40" as="geometry" />
        </mxCell>
        <mxCell id="VEC-emDZ8dzPH6i4BCSv-25" value="Pubic subnet" style="shape=mxgraph.ibm.box;prType=subnet;fontStyle=0;verticalAlign=top;align=left;spacingLeft=32;spacingTop=4;fillColor=#E6F0E2;rounded=0;whiteSpace=wrap;html=1;strokeColor=#00882B;strokeWidth=1;dashed=0;container=1;spacing=-4;collapsible=0;expand=0;recursiveResize=0;" vertex="1" parent="1">
          <mxGeometry x="980" y="455" width="260" height="260" as="geometry" />
        </mxCell>
        <mxCell id="VEC-emDZ8dzPH6i4BCSv-23" value="&lt;font style=&quot;font-size: 15px;&quot;&gt;Application Load balancer&lt;/font&gt;" style="text;html=1;align=center;verticalAlign=middle;whiteSpace=wrap;rounded=0;" vertex="1" parent="1">
          <mxGeometry x="817.62" y="480" width="130" height="50" as="geometry" />
        </mxCell>
        <mxCell id="VEC-emDZ8dzPH6i4BCSv-27" value="" style="outlineConnect=0;dashed=0;verticalLabelPosition=bottom;verticalAlign=top;align=center;html=1;shape=mxgraph.aws3.ec2;fillColor=#F58534;gradientColor=none;" vertex="1" parent="1">
          <mxGeometry x="1066.75" y="530" width="76.5" height="93" as="geometry" />
        </mxCell>
        <mxCell id="VEC-emDZ8dzPH6i4BCSv-29" value="" style="sketch=0;outlineConnect=0;fontColor=#232F3E;gradientColor=none;fillColor=#8C4FFF;strokeColor=none;dashed=0;verticalLabelPosition=bottom;verticalAlign=top;align=center;html=1;fontSize=12;fontStyle=0;aspect=fixed;pointerEvents=1;shape=mxgraph.aws4.nat_gateway;" vertex="1" parent="1">
          <mxGeometry x="1122" y="612" width="78" height="78" as="geometry" />
        </mxCell>
        <mxCell id="VEC-emDZ8dzPH6i4BCSv-30" value="Private subnet" style="shape=mxgraph.ibm.box;prType=subnet;fontStyle=0;verticalAlign=top;align=left;spacingLeft=32;spacingTop=4;fillColor=#E6F0E2;rounded=0;whiteSpace=wrap;html=1;strokeColor=#00882B;strokeWidth=1;dashed=0;container=1;spacing=-4;collapsible=0;expand=0;recursiveResize=0;" vertex="1" parent="1">
          <mxGeometry x="540" y="730" width="260" height="260" as="geometry" />
        </mxCell>
        <mxCell id="VEC-emDZ8dzPH6i4BCSv-31" value="Private subnet" style="shape=mxgraph.ibm.box;prType=subnet;fontStyle=0;verticalAlign=top;align=left;spacingLeft=32;spacingTop=4;fillColor=#E6F0E2;rounded=0;whiteSpace=wrap;html=1;strokeColor=#00882B;strokeWidth=1;dashed=0;container=1;spacing=-4;collapsible=0;expand=0;recursiveResize=0;" vertex="1" parent="1">
          <mxGeometry x="980" y="730" width="260" height="260" as="geometry" />
        </mxCell>
        <mxCell id="VEC-emDZ8dzPH6i4BCSv-32" value="Pubic subnet" style="shape=mxgraph.ibm.box;prType=subnet;fontStyle=0;verticalAlign=top;align=left;spacingLeft=32;spacingTop=4;fillColor=#E6F0E2;rounded=0;whiteSpace=wrap;html=1;strokeColor=#00882B;strokeWidth=1;dashed=0;container=1;spacing=-4;collapsible=0;expand=0;recursiveResize=0;" vertex="1" parent="1">
          <mxGeometry x="540" y="446.5" width="260" height="260" as="geometry" />
        </mxCell>
        <mxCell id="VEC-emDZ8dzPH6i4BCSv-28" value="" style="sketch=0;outlineConnect=0;fontColor=#232F3E;gradientColor=none;fillColor=#8C4FFF;strokeColor=none;dashed=0;verticalLabelPosition=bottom;verticalAlign=top;align=center;html=1;fontSize=12;fontStyle=0;aspect=fixed;pointerEvents=1;shape=mxgraph.aws4.nat_gateway;" vertex="1" parent="1">
          <mxGeometry x="570" y="612" width="78" height="78" as="geometry" />
        </mxCell>
        <mxCell id="VEC-emDZ8dzPH6i4BCSv-26" value="" style="outlineConnect=0;dashed=0;verticalLabelPosition=bottom;verticalAlign=top;align=center;html=1;shape=mxgraph.aws3.ec2;fillColor=#F58534;gradientColor=none;" vertex="1" parent="1">
          <mxGeometry x="650" y="530" width="76.5" height="93" as="geometry" />
        </mxCell>
        <mxCell id="VEC-emDZ8dzPH6i4BCSv-22" value="" style="rounded=0;whiteSpace=wrap;html=1;dashed=1;fillColor=none;" vertex="1" parent="1">
          <mxGeometry x="570" y="480" width="630" height="210" as="geometry" />
        </mxCell>
        <mxCell id="VEC-emDZ8dzPH6i4BCSv-33" value="" style="rounded=0;whiteSpace=wrap;html=1;dashed=1;fillColor=none;" vertex="1" parent="1">
          <mxGeometry x="580" y="760" width="630" height="210" as="geometry" />
        </mxCell>
        <mxCell id="VEC-emDZ8dzPH6i4BCSv-34" value="&lt;font style=&quot;font-size: 14px;&quot;&gt;Auto scale group&lt;/font&gt;" style="text;html=1;align=center;verticalAlign=middle;whiteSpace=wrap;rounded=0;" vertex="1" parent="1">
          <mxGeometry x="828.93" y="760" width="107.38" height="30" as="geometry" />
        </mxCell>
      </root>
    </mxGraphModel>
  </diagram>
</mxfile>
